<?xml version="1.0" encoding="UTF-8" standalone="no"?>
<!-- Created with Inkscape (http://www.inkscape.org/) -->

<svg
   width="297mm"
   height="210mm"
   viewBox="0 0 297 210"
   version="1.1"
   id="svg1"
   xml:space="preserve"
   inkscape:version="1.4.2 (f4327f4, 2025-05-13)"
   sodipodi:docname="DessertIMAGE.svg"
   xmlns:inkscape="http://www.inkscape.org/namespaces/inkscape"
   xmlns:sodipodi="http://sodipodi.sourceforge.net/DTD/sodipodi-0.dtd"
   xmlns="http://www.w3.org/2000/svg"
   xmlns:svg="http://www.w3.org/2000/svg"><sodipodi:namedview
     id="namedview1"
     pagecolor="#ffffff"
     bordercolor="#000000"
     borderopacity="0.25"
     inkscape:showpageshadow="2"
     inkscape:pageopacity="0.0"
     inkscape:pagecheckerboard="0"
     inkscape:deskcolor="#d1d1d1"
     inkscape:document-units="mm"
     inkscape:zoom="0.71891835"
     inkscape:cx="379.04165"
     inkscape:cy="419.38003"
     inkscape:window-width="1920"
     inkscape:window-height="1009"
     inkscape:window-x="-8"
     inkscape:window-y="-8"
     inkscape:window-maximized="1"
     inkscape:current-layer="layer2" /><defs
     id="defs1" /><g
     inkscape:groupmode="layer"
     id="layer2"
     inkscape:label="Layer 2"><path
       style="fill:#b9634e;fill-opacity:1;stroke-width:0.264583"
       d="M 0.06043546,163.85687 297.18987,162.90794 296.92965,210.01071 -0.07622145,210.1185 Z"
       id="path17"
       sodipodi:nodetypes="ccccc" /><path
       style="fill:#4683c1;fill-opacity:1;stroke-width:0.264583"
       d="M 0.26023632,-1.3011816 V 111.90162 l 14.05276168,0.26024 8.848035,8.06732 -12.208126,22.77768 18.97427,-8.72492 3.643309,-7.54685 5.191648,15.27547 4.176859,-7.72862 -9.650412,6.57447 17.717738,-5.79376 3.122837,-1.82165 2.08189,2.08189 -1.940283,8.32532 1.777007,-1.7955 -14.416305,3.64872 21.605962,0.75138 2.862598,2.34213 17.927908,5.75452 -7.77869,-10.43877 0.520473,-4.42402 2.08189,-1.04095 3.643307,8.06733 -24.624178,5.19707 36.334813,-0.77305 13.272052,0.91082 2.52028,-1.28201 2.68445,-2.23118 2.34212,-1.56142 -0.26023,-7.02638 2.8626,-2.60236 2.60236,1.04095 1.56142,-1.56142 4.49257,14.02212 -3.56483,-5.24172 5.31793,-11.643 -31.605907,10.09915 41.424087,16.3011 64.75652,-10.89294 -30.855,-27.99865 27.5603,13.93552 -26.51935,-22.78356 15.9935,-25.975807 -4.12501,-8.769107 6.05082,0.828066 4.98148,-9.802852 21.85985,-1.821656 4.16379,2.342129 3.82461,7.697052 3.462,-4.834454 -16.19331,16.946933 6.20644,17.865226 c 0,0 13.69395,-17.984951 12.84947,-17.376327 -14.72119,10.609717 -11.28534,7.523409 -11.28534,7.523409 l 10.77253,8.525118 7.57076,-6.892895 c 0,0 -7.23836,48.092845 -7.23836,47.051895 0,-1.04094 10.09195,-51.816858 10.09195,-51.816858 l -1.84421,-20.52532 c 0,0 -5.46001,10.367977 -4.41906,11.669158 1.04094,1.301182 4.70003,-6.907328 4.70003,-6.907328 l 5.18399,12.674005 -2.34213,-14.83347 c 0,0 -6.56067,16.481853 -5.53758,17.689762 22.67431,26.770471 6.57853,-0.774402 6.57853,-0.774402 l -11.39855,7.376383 5.67559,-0.009 c 0,0 11.422,41.35192 12.20271,43.95428 0.78071,2.60237 -0.23408,-28.42039 -0.23408,-28.42039 l -21.42736,23.39334 23.76949,-13.24412 -2.42694,17.439 5.33102,0.56513 1.0148,-2.5947 37.55882,18.20888 2.76248,-9.41633 0.52046,-151.1973053 z"
       id="path18"
       sodipodi:nodetypes="ccccccccccccccccccccccccccccccccccccccccccccccccccccscccsccscccscccscccccccccc" /></g><g
     inkscape:label="Layer 1"
     inkscape:groupmode="layer"
     id="layer1"><path
       style="fill:#b4351a;fill-opacity:1;stroke-width:0.264583"
       d="m 297.092,150.70817 -7.82064,-0.92007 -2.94423,-2.20818 -2.94423,-1.10409 -8.00465,-5.0604 -5.98048,-3.40428 -4.28623,-1.73236 0.15435,-2.48882 -5.4369,-2.40335 -4.04832,-4.41636 -3.54827,-2.03533 0.236,-5.6933 -1.47212,-1.47212 -1.84015,-4.41635 -1.47212,-11.40892 -2.20818,-3.680301 v -6.256504 h -1.84014 l -0.36803,-16.19331 -3.31227,-1.472117 -1.84015,2.944235 1.47212,21.345726 v 1.10409 l -2.94424,-2.20818 -2.20818,-3.680296 -3.6803,-0.36803 0.73606,-4.048326 -1.84015,-1.472121 -1.47211,1.472121 V 71.397769 l -3.10306,-1.903293 -2.62724,-0.219418 -3.68028,-2.564087 -11.93515,-0.09759 -12.19537,2.189997 -2.29014,-1.801559 -8.35242,-0.99438 c -2.58303,1.191308 -2.43344,1.096647 -4.7643,1.71003 l -2.94424,4.048328 -2.94424,8.464683 v 6.624536 l -0.36802,26.866172 -2.94424,0.73606 1.84015,6.62453 -9.56878,4.41636 -8.09665,5.52045 -2.94424,2.94423 -16.19331,11.0409 -1.10409,1.84014 -8.46468,-1.10409 2.61512,1.64497 -1.51103,-0.17285 2.72674,1.25845 -0.88659,-2.73057 -0.73606,-11.40892 -1.84015,-2.94423 -3.6803,2.20817 -0.36803,3.31227 -2.22859,1.578 -1.45171,-1.20997 -2.94423,3.31227 0.17285,6.29923 -4.17845,2.40336 -0.13203,2.42377 5.8904,1.5595 -15.61037,5.69003 2.77206,-3.06917 -0.76042,7.55712 -5.083411,-0.78206 6.578531,1.15009 192.52556,-0.87407 z"
       id="path1"
       sodipodi:nodetypes="cccccccccccccccccccccccccccccccccccccccccccccccccccccccccccccccccccccccc" /><path
       style="fill:#b4351a;fill-opacity:1;stroke-width:0.264583"
       d="m 0,111.14498 14.813196,1.01208 4.04945,3.67106 4.23122,3.68953 1.196097,21.43774 4.784385,3.31227 3.81831,1.70213 1.702136,1.61013 -8.878717,-4.00232 12.559015,-6.76255 29.626394,24.24397 -68.26951572,0.87406 z"
       id="path2"
       sodipodi:nodetypes="ccccccccccccc" /><path
       style="fill:#b4351a;fill-opacity:1;stroke-width:0.264583"
       d="m 33.398698,126.2802 -4.692379,7.54461 -0.966078,0.50604 -4.922397,1.10409 1.472119,6.25651 9.936801,5.88847 0.73606,-8.46468 16.19331,12.14498 41.721307,-0.0204 -4.182275,-3.65989 -6.071532,-0.83365 -1.222089,-3.09476 -2.287274,-5.06886 -1.026909,-0.47582 -1.309469,1.18956 -0.553002,4.72699 0.292765,0.74244 -5.487917,3.18214 -4.805753,0.58458 -3.658932,-2.79276 v -8.46468 l -4.048326,-1.47212 -2.283442,-0.62827 -2.002796,-1.99259 -4.178447,1.8848 -1.080409,0.59247 -1.449795,0.51162 -2.484201,0.46004 -2.346189,-2.30019 -5.290428,0.41403 z"
       id="path3"
       sodipodi:nodetypes="ccccccccccccccccccccccccccccccc" /><path
       style="fill:#b4351a;fill-opacity:1;stroke-width:0.264583"
       d="m 98.631969,165.61338 -99.7360582,-1.28811 1.65613381,-2.76022 -0.18401489,-0.73606 65.14126328,-0.36802 -14.721189,-9.93681 41.587358,0.36803 14.721188,0.36803 2.07806,-2.44801 3.44239,0.23983 4.68425,4.32898 -1.74001,0.45541 -11.84392,9.83476 z"
       id="path4"
       sodipodi:nodetypes="cccccccccccccc" /><path
       style="fill:#1c1809;fill-opacity:1;stroke-width:0.264583"
       d="m 163.62078,173.00172 -5.56317,5.42573 -1.28811,5.15242 3.12826,3.12825 7.36059,1.10409 5.52045,-1.2881 1.2881,-2.3922 -0.39961,-7.45564 z"
       id="path5"
       sodipodi:nodetypes="ccccccccc" /><path
       style="fill:#1c1809;fill-opacity:1;stroke-width:0.264583"
       d="m 201.31226,178.31041 -4.41635,3.49628 2.20818,7.54461 4.60037,0.55204 5.88847,-2.02416 0.73606,-2.76022 1.84015,-2.02417 0.55205,-1.47212 -6.99257,-1.2881 z"
       id="path7" /><path
       style="fill:#1c1809;fill-opacity:1;stroke-width:0.264583"
       d="m 255.59665,178.31041 -5.52045,4.78438 c 0,0 -0.73606,0.73606 0.36803,1.47212 1.1041,0.73606 -4.23234,0.92008 -4.23234,0.92008 l -0.55204,1.47212 10.12082,2.94423 7.72862,2.02417 2.39219,-2.20818 -0.18401,-2.02416 -4.04833,-1.84015 -0.92007,-1.84015 -1.28811,-1.84015 z"
       id="path8" /><path
       style="fill:#1c1809;fill-opacity:1;stroke-width:0.264583"
       d="m 199.65613,169.66171 -3.31227,1.84015 -0.18401,2.20817 3.31227,1.84015 3.49628,-1.47212 -0.36803,-2.94423 z"
       id="path9" /><path
       style="fill:#1c1809;fill-opacity:1;stroke-width:0.264583"
       d="m 169.29368,170.7658 -0.92008,2.39219 2.02417,2.02416 1.65613,0.55205 1.10409,-2.57621 -1.84015,-1.65613 z"
       id="path10" /><path
       style="fill:#1c1809;fill-opacity:1;stroke-width:0.264583"
       d="m 72.133827,167.63755 -3.496281,1.65613 5.336431,2.20818 2.944239,-0.55205 h 2.392193 l -4.048329,-2.76022 c 0,0 -3.128253,-0.18401 -3.128253,-0.55204 z"
       id="path11" /><path
       style="fill:#1c1809;fill-opacity:1;stroke-width:0.264583"
       d="m 86.302973,168.00558 4.784387,-1.28811 c 0,0 2.944238,0 2.760223,0.92008 -0.184015,0.92007 -1.472121,2.20817 -1.472121,2.20817 l -5.152413,-0.36803 z"
       id="path12" /><path
       style="fill:#1c1809;fill-opacity:1;stroke-width:0.264583"
       d="m 100.2881,171.13383 -3.864309,-0.73606 -2.208178,-0.73606 2.024163,-1.47212 -3.312269,-0.36803 c 0,0 -0.736057,-2.02417 0,-2.02417 0.736061,0 4.784387,0.18402 6.256507,0.18402 1.472116,0 2.392196,0.18401 3.128256,0.18401 0.73606,0 0.92007,0 2.20818,0.36803 1.2881,0.36803 2.02416,1.47213 1.84014,2.20818 -0.18401,0.73606 -0.73606,1.28811 -0.73606,1.28811 0,0 -1.47211,1.84015 -3.12825,0.55204 -1.65613,-1.2881 -1.84015,-1.2881 -1.84015,-1.2881 z"
       id="path13" /><path
       style="fill:#1c1809;fill-opacity:1;stroke-width:0.264583"
       d="m 117.40149,168.74163 c 0,0 -2.76023,0.55205 -4.04833,0.36803 -1.2881,-0.18401 -3.6803,-2.02416 -3.6803,-2.02416 0,0 3.31227,-1.10409 4.60037,-1.10409 1.28811,0 0.55205,-0.73606 2.02417,0.18401 1.47211,0.92008 1.10409,2.57621 1.10409,2.57621 z"
       id="path14" /><path
       style="fill:#1c1809;fill-opacity:1;stroke-width:0.264583"
       d="m 198,163.58922 -5.33643,0.92007 0.18401,3.49629 6.44052,0.73605 c 0,0 0.55205,-0.55204 0.55205,-1.65613 0,-1.10409 -1.84015,-3.49628 -1.84015,-3.49628 z"
       id="path15" /><path
       style="fill:#1c1809;fill-opacity:1;stroke-width:0.264583"
       d="m 271.81683,163.81876 -2.47224,2.0819 c 0,0 -0.26022,0.39035 -0.32528,0.7807 -0.0651,0.39036 -0.26025,1.30119 -0.26025,1.30119 0,0 1.43129,0.32529 2.01684,0.71565 0.58553,0.39035 1.69154,-0.78071 1.69154,-0.78071 0,0 2.21199,0.52047 2.79754,0.52047 0.58553,0 4.42399,-0.58553 4.42399,-0.58553 0,0 -1.62647,-0.71565 -1.75659,-1.17107 -0.1301,-0.45541 0.0651,-1.17106 0.0651,-1.17106 0,0 0.26024,-0.39036 -0.71564,-0.39036 -0.97589,0 -0.19519,0.19518 -1.36623,0.0651 -1.17108,-0.13012 -0.97589,-0.26024 -1.82166,-0.58554 -0.84577,-0.32529 -0.91083,-0.39035 -1.49635,-0.45541 -0.58555,-0.0651 -0.78073,-0.3253 -0.78073,-0.3253 z"
       id="path16" /></g></svg>
