<?xml version="1.0" encoding="UTF-8" standalone="no"?>
<!-- Created with Inkscape (http://www.inkscape.org/) -->

<svg
   width="323mm"
   height="210mm"
   viewBox="0 0 323 210"
   version="1.1"
   id="svg1"
   xml:space="preserve"
   inkscape:version="1.4.2 (f4327f4, 2025-05-13)"
   sodipodi:docname="landscacpe.svg"
   xmlns:inkscape="http://www.inkscape.org/namespaces/inkscape"
   xmlns:sodipodi="http://sodipodi.sourceforge.net/DTD/sodipodi-0.dtd"
   xmlns:xlink="http://www.w3.org/1999/xlink"
   xmlns="http://www.w3.org/2000/svg"
   xmlns:svg="http://www.w3.org/2000/svg"><sodipodi:namedview
     id="namedview1"
     pagecolor="#ffffff"
     bordercolor="#000000"
     borderopacity="0.25"
     inkscape:showpageshadow="2"
     inkscape:pageopacity="0.0"
     inkscape:pagecheckerboard="0"
     inkscape:deskcolor="#d1d1d1"
     inkscape:document-units="mm"
     inkscape:zoom="0.50835204"
     inkscape:cx="319.66037"
     inkscape:cy="349.16748"
     inkscape:window-width="1920"
     inkscape:window-height="1009"
     inkscape:window-x="-8"
     inkscape:window-y="-8"
     inkscape:window-maximized="1"
     inkscape:current-layer="layer1" /><defs
     id="defs1"><linearGradient
       id="swatch54"
       inkscape:swatch="solid"><stop
         style="stop-color:#80b710;stop-opacity:1;"
         offset="0"
         id="stop55" /></linearGradient><linearGradient
       id="linearGradient52"
       inkscape:collect="always"><stop
         style="stop-color:#e6e6e6;stop-opacity:1;"
         offset="0"
         id="stop53" /><stop
         style="stop-color:#e6e6e6;stop-opacity:0;"
         offset="1"
         id="stop54" /></linearGradient><linearGradient
       id="linearGradient50"
       inkscape:collect="always"><stop
         style="stop-color:#e6e6e6;stop-opacity:1;"
         offset="0"
         id="stop51" /><stop
         style="stop-color:#e6e6e6;stop-opacity:0;"
         offset="1"
         id="stop52" /></linearGradient><linearGradient
       id="linearGradient48"
       inkscape:collect="always"><stop
         style="stop-color:#e6e6e6;stop-opacity:1;"
         offset="0"
         id="stop49" /><stop
         style="stop-color:#e6e6e6;stop-opacity:0;"
         offset="1"
         id="stop50" /></linearGradient><linearGradient
       id="linearGradient46"
       inkscape:collect="always"><stop
         style="stop-color:#ececec;stop-opacity:1;"
         offset="0"
         id="stop47" /><stop
         style="stop-color:#ececec;stop-opacity:0;"
         offset="1"
         id="stop48" /></linearGradient><linearGradient
       id="linearGradient44"
       inkscape:collect="always"><stop
         style="stop-color:#e6e6e6;stop-opacity:1;"
         offset="0"
         id="stop45" /><stop
         style="stop-color:#e6e6e6;stop-opacity:0;"
         offset="1"
         id="stop46" /></linearGradient><linearGradient
       id="linearGradient38"
       inkscape:collect="always"><stop
         style="stop-color:#e6e6e6;stop-opacity:1;"
         offset="0"
         id="stop39" /><stop
         style="stop-color:#e6e6e6;stop-opacity:0;"
         offset="1"
         id="stop40" /></linearGradient><linearGradient
       id="linearGradient36"
       inkscape:collect="always"><stop
         style="stop-color:#f2f2f2;stop-opacity:1;"
         offset="0"
         id="stop37" /><stop
         style="stop-color:#f2f2f2;stop-opacity:0;"
         offset="1"
         id="stop38" /></linearGradient><linearGradient
       id="linearGradient35"
       inkscape:collect="always"><stop
         style="stop-color:#e6e6e6;stop-opacity:1;"
         offset="0"
         id="stop35" /><stop
         style="stop-color:#e6e6e6;stop-opacity:0;"
         offset="1"
         id="stop36" /></linearGradient><linearGradient
       id="linearGradient19"
       inkscape:collect="always"><stop
         style="stop-color:#f4ff20;stop-opacity:1;"
         offset="0"
         id="stop20" /><stop
         style="stop-color:#faff80;stop-opacity:0;"
         offset="1"
         id="stop21" /></linearGradient><radialGradient
       inkscape:collect="always"
       xlink:href="#linearGradient19"
       id="radialGradient21"
       cx="20.057621"
       cy="20.79368"
       fx="20.057621"
       fy="20.79368"
       r="17.849442"
       gradientTransform="matrix(1.7835051,0,0,1.2268041,32.864674,-3.980035)"
       gradientUnits="userSpaceOnUse" /><radialGradient
       inkscape:collect="always"
       xlink:href="#linearGradient35"
       id="radialGradient36"
       cx="103.96441"
       cy="31.358479"
       fx="103.96441"
       fy="31.358479"
       r="23.811623"
       gradientTransform="matrix(1.3114754,0,0,0.59132899,54.797468,-1.0164547)"
       gradientUnits="userSpaceOnUse" /><radialGradient
       inkscape:collect="always"
       xlink:href="#linearGradient36"
       id="radialGradient38"
       cx="143.78056"
       cy="48.924427"
       fx="143.78056"
       fy="48.924427"
       r="31.358477"
       gradientTransform="matrix(1.0762854,0,0,0.38132569,78.744621,14.517911)"
       gradientUnits="userSpaceOnUse" /><radialGradient
       inkscape:collect="always"
       xlink:href="#linearGradient38"
       id="radialGradient40"
       cx="151.84789"
       cy="36.823441"
       fx="151.84789"
       fy="36.823441"
       r="37.864388"
       gradientTransform="matrix(1,0,0,0.28835631,145.20158,28.051664)"
       gradientUnits="userSpaceOnUse" /><radialGradient
       inkscape:collect="always"
       xlink:href="#linearGradient44"
       id="radialGradient46"
       cx="134.41206"
       cy="50.485844"
       fx="134.41206"
       fy="50.485844"
       r="54.519512"
       gradientTransform="matrix(1,0,0,0.28639617,-23.171867,20.921036)"
       gradientUnits="userSpaceOnUse" /><radialGradient
       inkscape:collect="always"
       xlink:href="#linearGradient46"
       id="radialGradient48"
       cx="116.0654"
       cy="46.452183"
       fx="116.0654"
       fy="46.452183"
       r="43.459465"
       gradientTransform="matrix(1,0,0,0.26047905,181.38472,-4.6830863)"
       gradientUnits="userSpaceOnUse" /><radialGradient
       inkscape:collect="always"
       xlink:href="#linearGradient48"
       id="radialGradient50"
       cx="119.05762"
       cy="51.708176"
       fx="119.05762"
       fy="51.708176"
       r="48.763939"
       gradientTransform="matrix(0.78867926,0,0,0.25660378,-63.90385,15.069776)"
       gradientUnits="userSpaceOnUse" /><radialGradient
       inkscape:collect="always"
       xlink:href="#linearGradient50"
       id="radialGradient52"
       cx="88.695168"
       cy="79.86245"
       fx="88.695168"
       fy="79.86245"
       r="61.828999"
       gradientTransform="matrix(0.90476191,0,0,0.28869044,-27.619756,22.396143)"
       gradientUnits="userSpaceOnUse" /><radialGradient
       inkscape:collect="always"
       xlink:href="#linearGradient52"
       id="radialGradient54"
       cx="264.79739"
       cy="56.124535"
       fx="264.79739"
       fy="56.124535"
       r="58.33271"
       gradientTransform="matrix(1,0,0,0.22397478,-1.8401487,10.431377)"
       gradientUnits="userSpaceOnUse" /></defs><g
     inkscape:label="Layer 1"
     inkscape:groupmode="layer"
     id="layer1"><path
       style="fill:#80b80f;fill-opacity:1;stroke-width:0.264583"
       d="m 0.73605947,145.00372 83.54275053,2.5762 57.41264,-9.9368 27.2342,-2.94424 40.8513,-5.15241 18.40149,-0.36803 30.17843,1.84015 40.11525,1.10409 3.31226,-0.36803 16.56133,0.36803 4.41637,1.10408 0.36804,0.36803"
       id="path2" /><path
       style="fill:#80b710;fill-opacity:1;stroke-width:0.264583"
       d="m 0.52047263,145.06685 -0.88850238,64.7101 323.47580975,0.28256 0.11434,-78.6729 -13.89311,2.57621 -185.15055,6.34198 -18.50149,2.99833 -21.572929,3.49608 z"
       id="path3"
       sodipodi:nodetypes="ccccccccc" /><path
       style="fill:#a3b0c2;fill-opacity:1;stroke-width:0.264583"
       d="M -0.0446495,0.21558682 V 145.85141 L 123.43857,141.62831 123.24531,0.21558682 Z"
       id="path8"
       sodipodi:nodetypes="ccccc" /><path
       style="fill:#a3b0c2;fill-opacity:1;stroke-width:0.264583"
       d="m 120.12248,-0.30488582 c 14.72119,-0.36802975 202.83668,0.4758231 202.83668,0.4758231 l -0.0893,132.73245272 -57.36799,-0.17094 -48.83731,-3.33325 14.71383,-68.283282 -52.30038,19.437945 3.61987,52.427107 -21.0607,3.48048 -21.67811,2.33041 -21.00608,3.26563 4.1845,-1.14675 z"
       id="path10"
       sodipodi:nodetypes="ccccccccccccc" /><path
       style="fill:#a3b0c2;fill-opacity:1;stroke-width:0.264583"
       d="m 218.24163,62.197024 28.70632,17.665427 1.84015,-29.810408 -33.85873,11.776954 -36.43495,18.217471 2.71422,53.134302 30.28026,-3.6343 1.53718,-1.64689 0.30297,-4.67851 -0.60786,-0.66717 v -1.10409 l -2.20818,1.47212 -2.20818,-2.94424 -5.15242,-0.36803 -1.47212,3.6803 -5.15241,-0.36803 h -3.31227 l -3.6803,2.20818 -1.84014,-2.57621 -4.04833,-1.10409 -1.84015,-1.84015 2.20818,-9.9368 -1.47212,-1.84015 -0.73606,-14.353157 3.31227,-1.104091 c 0,0 3.22872,-4.609617 6.17295,-6.817795 2.94424,-2.20818 5.604,-6.799303 5.604,-6.799303 l 5.52044,-5.152417 5.88848,-3.312268 17.16728,-1.535263 9.69889,6.319649 4.41636,8.832715 3.31227,4.784386 0.73606,1.472118 2.5762,2.576208 -0.68503,4.751857 -0.87224,1.706205 -1.01893,3.846776 c 0,0 0.36802,1.84015 1.10408,3.31226 0.73606,1.47212 0.36803,6.25651 0.36803,6.25651 l 0.73606,5.52044 -6.99256,2.94424 -8.83272,1.47212 -5.15241,-2.20818 -2.20818,2.57621 -5.95928,-0.81707 -1.40131,3.02525 0.73606,2.94424 0.79728,1.08177 19.07632,-0.34571 10.30483,1.47212 h 2.20818 l -1.84015,-49.684018 0.73606,-0.736061"
       id="path11"
       sodipodi:nodetypes="cccccccccccccccccccccccccsccccccccccccsccccccccccccccc" /><path
       style="fill:#a3b0c2;fill-opacity:1;stroke-width:0.264583"
       d="m 191.74349,80.966542 0.36803,6.624534 -3.6803,-1.472118 -0.36802,1.104088 -2.20819,3.312268 v 2.944239 l -1.38281,2.295562 -0.0893,2.120794 -1.47212,4.048331 -3.50107,-2.320435 2.39698,-6.144252 4.78439,-2.208178 3.31226,-7.728625 z"
       id="path12"
       sodipodi:nodetypes="cccccccccccccc" /><path
       style="fill:#47aa1a;fill-opacity:1;stroke-width:0.264583"
       d="m 209.96096,69.741635 c -12.88105,4.416359 -2.94982,0.406596 -11.22491,5.336433 -8.6487,5.152415 -0.11152,3.667793 -6.62454,8.096653 -4.60037,3.128251 -4.87511,2.90752 -6.62453,7.360594 -2.02416,5.152417 -3.49628,11.776955 -3.49628,11.776955 l 0.36803,4.9684 1.47212,2.94424 -2.3922,9.20073 4.04833,3.86432 4.23234,2.02416 8.41079,-2.16448 3.45642,0.21558 4.14208,-2.46746 4.80739,1.97816 3.6573,0.046 2.5762,-0.73606 -0.98321,1.81686 6.54098,-0.56416 4.93108,-2.54081 0.73606,-0.92006 c 9.2518,8.03049 0.60201,0.53401 2.94424,2.5762 l 10.85688,-2.94423 4.04833,-1.84015 c 0,0 -0.36803,-0.73606 -0.36803,-3.31227 v -4.78439 l 0.73606,-7.5446 0.18401,-6.072498 -1.2881,-9.200743 -10.30484,-11.408922 -2.5762,-2.576208 -4.41636,-4.048327 h -5.15242 c 0,0 -1.84015,0.36803 -4.04832,0.73606 -2.20818,0.368029 -8.6487,0.184013 -8.6487,0.184013 z"
       id="path13"
       sodipodi:nodetypes="cssscccccccccccccccccccsccccccccsc" /><ellipse
       style="fill:url(#radialGradient21);stroke-width:0.41325"
       id="path14"
       cx="68.63755"
       cy="21.529739"
       rx="31.83457"
       ry="21.89777" /><path
       style="fill:#2b2200;fill-opacity:1;stroke-width:0.264583"
       d="m 213.00343,122.83154 c 0.26024,5.33485 -1.17107,6.24568 -1.17107,6.24568 l -0.32992,0.49814 5.27442,-0.10779 0.1768,-0.0446 -1.34787,-3.2083 -0.26024,-1.17107 1.32486,-2.79427 -2.3658,0.45215 z"
       id="path23"
       sodipodi:nodetypes="cccccccccc" /><ellipse
       style="fill:url(#radialGradient36);stroke-width:0.327992"
       id="path24"
       cx="191.14423"
       cy="17.52672"
       rx="31.228357"
       ry="14.080503" /><ellipse
       style="fill:url(#radialGradient40);stroke-width:0.906542"
       id="path25"
       cx="297.04947"
       cy="38.669937"
       rx="37.864388"
       ry="10.918435" /><ellipse
       style="fill:url(#radialGradient46);stroke-width:1.14092"
       id="path26"
       cx="111.24019"
       cy="35.37999"
       rx="54.519512"
       ry="15.61418" /><ellipse
       style="fill:url(#radialGradient38);stroke-width:1.87433"
       id="path27"
       cx="233.49352"
       cy="33.174057"
       rx="33.750671"
       ry="11.957793" /><ellipse
       style="fill:url(#radialGradient48);stroke-width:1.80988"
       id="path28"
       cx="297.4501"
       cy="7.4167342"
       rx="43.459465"
       ry="11.32028" /><ellipse
       style="fill:url(#radialGradient50);stroke-width:0.327516"
       id="path48"
       cx="29.994423"
       cy="28.338287"
       rx="38.459106"
       ry="12.513011" /><ellipse
       style="fill:url(#radialGradient52);stroke-width:0.232147"
       id="path50"
       cx="52.628254"
       cy="45.451672"
       rx="55.940521"
       ry="17.849442" /><ellipse
       style="fill:url(#radialGradient54);stroke-width:0.264583"
       id="path52"
       cx="262.95724"
       cy="23.001858"
       rx="58.33271"
       ry="13.065056" /></g></svg>
